<?xml version="1.0" encoding="utf-8"?>
<!-- Generator: Adobe Illustrator 27.5.0, SVG Export Plug-In . SVG Version: 6.00 Build 0)  -->
<svg version="1.1" id="Capa_1" xmlns="http://www.w3.org/2000/svg" xmlns:xlink="http://www.w3.org/1999/xlink" x="0px" y="0px"
	 viewBox="0 0 32 32" style="enable-background:new 0 0 32 32;" xml:space="preserve">
<style type="text/css">
	.st0{display:none;fill-rule:evenodd;clip-rule:evenodd;fill:#FFFFFF;}
	.st1{fill-rule:evenodd;clip-rule:evenodd;fill:#312783;}
	.st2{fill-rule:evenodd;clip-rule:evenodd;fill:#FFFFFF;}
	.st3{fill-rule:evenodd;clip-rule:evenodd;fill:#E30613;}
	.st4{fill:#FFFFFF;}
</style>
<g>
	<polygon class="st0" points="-2.43,-2.43 34.43,-2.43 34.43,34.43 -2.43,34.43 -2.43,-2.43 	"/>
	<g>
		<path class="st1" d="M14.78,29.29c7.34,0,13.29-5.95,13.29-13.29c0-7.34-5.95-13.29-13.29-13.29C7.44,2.71,1.49,8.66,1.49,16
			C1.49,23.34,7.44,29.29,14.78,29.29L14.78,29.29z"/>
		<path class="st2" d="M14.64,20.93c-0.27-0.06-1.05-0.76-1.05-0.76l-0.24,0.23c0,0,0.56,0.66,0.9,1.11L14.64,20.93L14.64,20.93z"/>
		<path class="st2" d="M11.01,23.63c0.09,0,0.16-0.07,0.16-0.16c0-0.09-0.07-0.16-0.16-0.16c-0.09,0-0.16,0.07-0.16,0.16
			C10.86,23.56,10.93,23.63,11.01,23.63L11.01,23.63z"/>
		<path class="st2" d="M11.16,24.85c0.07,0,0.12-0.05,0.12-0.12c0-0.07-0.05-0.12-0.12-0.12c-0.07,0-0.12,0.05-0.12,0.12
			C11.04,24.8,11.09,24.85,11.16,24.85L11.16,24.85z"/>
		<path class="st2" d="M16.66,23.69c0.06,0,0.11-0.05,0.11-0.11c0-0.06-0.05-0.11-0.11-0.11c-0.06,0-0.11,0.05-0.11,0.11
			C16.55,23.64,16.6,23.69,16.66,23.69L16.66,23.69z"/>
		<path class="st2" d="M20.38,21.41c0.04,0,0.08-0.03,0.08-0.08c0-0.04-0.03-0.08-0.08-0.08c-0.04,0-0.08,0.03-0.08,0.08
			C20.31,21.38,20.34,21.41,20.38,21.41L20.38,21.41z"/>
		<path class="st2" d="M20.49,22.89c0.04,0,0.08-0.03,0.08-0.08c0-0.04-0.03-0.08-0.08-0.08c-0.04,0-0.08,0.03-0.08,0.08
			C20.41,22.86,20.45,22.89,20.49,22.89L20.49,22.89z"/>
		<path class="st2" d="M21.19,25.69c0.09,0,0.16-0.07,0.16-0.16c0-0.09-0.07-0.16-0.16-0.16c-0.09,0-0.16,0.07-0.16,0.16
			C21.03,25.62,21.1,25.69,21.19,25.69L21.19,25.69z"/>
		<path class="st2" d="M21.34,20.79c0.09,0,0.16-0.07,0.16-0.16c0-0.09-0.07-0.16-0.16-0.16c-0.09,0-0.16,0.07-0.16,0.16
			C21.18,20.72,21.25,20.79,21.34,20.79L21.34,20.79z"/>
		<path class="st2" d="M21.39,21.7c0.04,0,0.08-0.04,0.08-0.08c0-0.04-0.04-0.08-0.08-0.08c-0.04,0-0.08,0.04-0.08,0.08
			C21.31,21.66,21.34,21.7,21.39,21.7L21.39,21.7z"/>
		<path class="st2" d="M22.9,19.97c0.04,0,0.08-0.04,0.08-0.08c0-0.04-0.04-0.08-0.08-0.08c-0.04,0-0.08,0.04-0.08,0.08
			C22.82,19.94,22.86,19.97,22.9,19.97L22.9,19.97z"/>
		<path class="st2" d="M24.38,21.67c0.06,0,0.1-0.05,0.1-0.1c0-0.06-0.05-0.1-0.1-0.1c-0.06,0-0.1,0.05-0.1,0.1
			C24.28,21.62,24.32,21.67,24.38,21.67L24.38,21.67z"/>
		<path class="st2" d="M25.04,21.35c0.07,0,0.13-0.06,0.13-0.13c0-0.07-0.06-0.13-0.13-0.13c-0.07,0-0.13,0.06-0.13,0.13
			C24.91,21.29,24.97,21.35,25.04,21.35L25.04,21.35z"/>
		<path class="st2" d="M23.14,22.77c0.07,0,0.13-0.06,0.13-0.13c0-0.07-0.06-0.13-0.13-0.13c-0.07,0-0.13,0.06-0.13,0.13
			C23.01,22.72,23.07,22.77,23.14,22.77L23.14,22.77z"/>
		<path class="st2" d="M24.5,23.39c0.04,0,0.07-0.03,0.07-0.07c0-0.04-0.03-0.07-0.07-0.07c-0.04,0-0.07,0.03-0.07,0.07
			C24.43,23.36,24.47,23.39,24.5,23.39L24.5,23.39z"/>
		<path class="st2" d="M15.86,6.05c0.09,0,0.16-0.07,0.16-0.16c0-0.09-0.07-0.16-0.16-0.16c-0.09,0-0.16,0.07-0.16,0.16
			C15.7,5.98,15.77,6.05,15.86,6.05L15.86,6.05z"/>
		<path class="st2" d="M15.22,4.36c0.05,0,0.09-0.04,0.09-0.09c0-0.05-0.04-0.09-0.09-0.09c-0.05,0-0.09,0.04-0.09,0.09
			C15.13,4.32,15.17,4.36,15.22,4.36L15.22,4.36z"/>
		<path class="st2" d="M15.06,6.45c0.03,0,0.05-0.02,0.05-0.05c0-0.03-0.02-0.05-0.05-0.05c-0.03,0-0.05,0.02-0.05,0.05
			C15.01,6.43,15.03,6.45,15.06,6.45L15.06,6.45z"/>
		<path class="st2" d="M12.53,6.7c0.07,0,0.12-0.05,0.12-0.12c0-0.07-0.05-0.12-0.12-0.12c-0.07,0-0.12,0.05-0.12,0.12
			C12.41,6.65,12.47,6.7,12.53,6.7L12.53,6.7z"/>
		<path class="st2" d="M12.32,6.43c0.03,0,0.05-0.02,0.05-0.05c0-0.03-0.02-0.05-0.05-0.05c-0.03,0-0.05,0.02-0.05,0.05
			C12.26,6.4,12.29,6.43,12.32,6.43L12.32,6.43z"/>
		<path class="st2" d="M17.56,8.85c0.06,0,0.11-0.05,0.11-0.11c0-0.06-0.05-0.11-0.11-0.11c-0.06,0-0.11,0.05-0.11,0.11
			C17.45,8.8,17.5,8.85,17.56,8.85L17.56,8.85z"/>
		<path class="st2" d="M18.94,15.47c0,0,2,0.61,1.33,2.33c0,0-0.87,1.75-3.45,0.9l-0.53,0.47l-0.02-1.67l0.75,0.57
			c0,0,1.72,0.47,1.75-0.52c0,0-0.09-0.37-1.41-0.77c0,0-1.54-0.47-1.19-1.83c0,0,0.24-2.11,3.3-1.26l0.53-0.29l-0.01,1.62
			l-0.66-0.65c0,0-1.38-0.45-1.59,0.22C17.54,15.34,18.44,15.29,18.94,15.47L18.94,15.47z"/>
		<polygon class="st2" points="21.94,13.6 24.24,13.6 26.1,18.08 26.71,18.68 23.57,18.68 24.07,18.17 23.81,17.5 22.12,17.5 
			21.92,18.2 22.27,18.68 20.78,18.68 21.29,18.17 22.53,14.23 21.94,13.6 		"/>
		<polygon class="st1" points="23.59,16.8 22.87,15.06 22.32,16.8 23.59,16.8 		"/>
		<path class="st2" d="M14.36,5.7c0.09,0,0.16-0.07,0.16-0.16c0-0.09-0.07-0.16-0.16-0.16c-0.09,0-0.16,0.07-0.16,0.16
			C14.2,5.63,14.27,5.7,14.36,5.7L14.36,5.7z"/>
		<path class="st2" d="M10.22,9.29c0.06,0,0.11-0.05,0.11-0.11c0-0.06-0.05-0.11-0.11-0.11c-0.06,0-0.11,0.05-0.11,0.11
			C10.11,9.24,10.16,9.29,10.22,9.29L10.22,9.29z"/>
		<path class="st2" d="M10.56,9.87c0.06,0,0.11-0.05,0.11-0.11c0-0.06-0.05-0.11-0.11-0.11c-0.06,0-0.11,0.05-0.11,0.11
			C10.45,9.82,10.5,9.87,10.56,9.87L10.56,9.87z"/>
		<path class="st2" d="M11.56,11.16c0.03,0,0.05-0.02,0.05-0.05c0-0.03-0.02-0.05-0.05-0.05c-0.03,0-0.05,0.02-0.05,0.05
			C11.5,11.14,11.53,11.16,11.56,11.16L11.56,11.16z"/>
		<path class="st2" d="M12.81,6.8c0.03,0,0.05-0.02,0.05-0.05s-0.02-0.05-0.05-0.05c-0.03,0-0.05,0.02-0.05,0.05
			S12.78,6.8,12.81,6.8L12.81,6.8z"/>
		<path class="st2" d="M12.66,7.44c0.05,0,0.09-0.04,0.09-0.09c0-0.05-0.04-0.09-0.09-0.09c-0.05,0-0.09,0.04-0.09,0.09
			C12.57,7.4,12.61,7.44,12.66,7.44L12.66,7.44z"/>
		<path class="st2" d="M14.57,6.79c0.05,0,0.09-0.04,0.09-0.09c0-0.05-0.04-0.09-0.09-0.09c-0.05,0-0.09,0.04-0.09,0.09
			C14.48,6.75,14.52,6.79,14.57,6.79L14.57,6.79z"/>
		<path class="st2" d="M15.73,7.48c0.05,0,0.09-0.04,0.09-0.09c0-0.05-0.04-0.09-0.09-0.09c-0.05,0-0.09,0.04-0.09,0.09
			C15.64,7.44,15.68,7.48,15.73,7.48L15.73,7.48z"/>
		<path class="st2" d="M23.53,23.55c0.11,0,0.2-0.09,0.2-0.2s-0.09-0.2-0.2-0.2c-0.11,0-0.2,0.09-0.2,0.2S23.42,23.55,23.53,23.55
			L23.53,23.55z"/>
		<polygon class="st2" points="23.41,23.18 23.53,22.84 23.64,23.18 23.41,23.18 		"/>
		<polygon class="st2" points="23.41,23.5 23.53,23.84 23.64,23.5 23.41,23.5 		"/>
		<polygon class="st2" points="23.36,23.47 23.02,23.35 23.36,23.24 23.36,23.47 		"/>
		<polygon class="st2" points="23.69,23.47 24.03,23.35 23.69,23.24 23.69,23.47 		"/>
		<path class="st2" d="M23.16,20.75c0.07,0,0.13-0.06,0.13-0.13c0-0.07-0.06-0.13-0.13-0.13c-0.07,0-0.13,0.06-0.13,0.13
			C23.04,20.69,23.09,20.75,23.16,20.75L23.16,20.75z"/>
		<path class="st2" d="M18.99,26.03c0.07,0,0.13-0.06,0.13-0.13c0-0.07-0.06-0.13-0.13-0.13c-0.07,0-0.13,0.06-0.13,0.13
			C18.86,25.97,18.92,26.03,18.99,26.03L18.99,26.03z"/>
		<path class="st2" d="M14.19,24.62c0.07,0,0.13-0.06,0.13-0.13c0-0.07-0.06-0.13-0.13-0.13c-0.07,0-0.13,0.06-0.13,0.13
			C14.06,24.56,14.11,24.62,14.19,24.62L14.19,24.62z"/>
		<path class="st2" d="M9.67,24.66c0.07,0,0.13-0.06,0.13-0.13c0-0.07-0.06-0.13-0.13-0.13c-0.07,0-0.13,0.06-0.13,0.13
			C9.54,24.6,9.6,24.66,9.67,24.66L9.67,24.66z"/>
		<path class="st2" d="M10.18,21.7c0.05,0,0.09-0.04,0.09-0.09c0-0.05-0.04-0.09-0.09-0.09c-0.05,0-0.09,0.04-0.09,0.09
			C10.1,21.66,10.14,21.7,10.18,21.7L10.18,21.7z"/>
		<path class="st2" d="M8.64,22.76c0.05,0,0.09-0.04,0.09-0.09c0-0.05-0.04-0.09-0.09-0.09c-0.05,0-0.09,0.04-0.09,0.09
			C8.55,22.73,8.59,22.76,8.64,22.76L8.64,22.76z"/>
		<path class="st2" d="M10.51,19.24c0.05,0,0.09-0.04,0.09-0.09c0-0.05-0.04-0.09-0.09-0.09c-0.05,0-0.09,0.04-0.09,0.09
			C10.42,19.2,10.46,19.24,10.51,19.24L10.51,19.24z"/>
		<path class="st2" d="M5.17,21.73c0.05,0,0.09-0.04,0.09-0.09c0-0.05-0.04-0.09-0.09-0.09c-0.05,0-0.09,0.04-0.09,0.09
			C5.08,21.7,5.12,21.73,5.17,21.73L5.17,21.73z"/>
		<path class="st2" d="M6.6,21.87c0.05,0,0.09-0.04,0.09-0.09c0-0.05-0.04-0.09-0.09-0.09c-0.05,0-0.09,0.04-0.09,0.09
			C6.51,21.83,6.55,21.87,6.6,21.87L6.6,21.87z"/>
		<path class="st2" d="M6.33,22.57c0.09,0,0.16-0.07,0.16-0.16c0-0.09-0.07-0.16-0.16-0.16c-0.09,0-0.16,0.07-0.16,0.16
			C6.18,22.5,6.25,22.57,6.33,22.57L6.33,22.57z"/>
		<path class="st2" d="M6.83,23.16c0.09,0,0.16-0.07,0.16-0.16c0-0.09-0.07-0.16-0.16-0.16c-0.09,0-0.16,0.07-0.16,0.16
			C6.67,23.09,6.74,23.16,6.83,23.16L6.83,23.16z"/>
		<path class="st3" d="M26.69,8.49c2.39-1.97,4.36-3.67,5.05-4.95c0,0-1.52,5.08-8.61,10.39c0,0-10.83,7.39-13.79,9.46
			c0,0-2.73,1.93-5.05,4.92l-0.05-0.49c0,0,1.74-2.55,5.69-5.35c3.48-2.46,4.77-3.28,4.77-3.28s8.26-5.17,9.97-7.42
			c0,0-5.92,3.4-16.14,5.38c0,0-4.73,1.19-7.82,3.12H0.29c0,0,2.7-2.29,8.95-4.07C9.24,16.2,19.82,13.06,26.69,8.49L26.69,8.49z"/>
		<polygon class="st2" points="3.85,13.62 5.99,13.62 7.82,16.7 7.82,14 7.48,13.62 8.82,13.62 8.49,14.14 8.49,18.15 8.98,18.68 
			6.84,18.68 5.02,15.52 5.02,18.17 5.41,18.69 3.79,18.69 4.25,18.13 4.25,14.23 3.85,13.62 		"/>
		<polygon class="st2" points="10.97,13.61 13.33,13.61 15.02,18.09 15.63,18.69 12.6,18.69 13.1,18.18 12.84,17.51 11.15,17.51 
			11.05,18.22 11.4,18.69 9.81,18.69 10.38,18.18 11.55,14.24 10.97,13.61 		"/>
		<polygon class="st1" points="12.61,16.81 11.9,15.07 11.35,16.81 12.61,16.81 		"/>
		<polygon class="st3" points="11.81,15.37 11.99,15.3 12.39,16.28 11.44,16.52 11.81,15.37 		"/>
		<path class="st2" d="M16.24,15.71c0,0-0.53-1.45,1.07-1.98c0,0,0.76-0.61,2.36,0l0.35-0.31v1.62c0,0-0.73-0.77-1.27-0.85
			c-0.53-0.08-1.07,0.08-0.99,0.84L16.24,15.71L16.24,15.71z"/>
		<path class="st4" d="M17.44,23.33c0.78,0.46,1.54,0.75,2.2,0.84c0.63,0.09,1.18-0.01,1.58-0.32c0.05-0.04,0.1-0.08,0.15-0.13
			c1.9-1.81-0.36-7.78-3.89-11.48l0,0c0,0-0.33-0.38-0.55-0.6l0.12-0.12c0.21,0.21,0.52,0.57,0.55,0.61c0,0,0,0,0,0c0,0,0,0,0,0l0,0
			c3.58,3.76,5.85,9.85,3.89,11.72c-0.05,0.05-0.11,0.1-0.17,0.14c-0.44,0.33-1.03,0.44-1.7,0.35c-0.69-0.09-1.46-0.39-2.27-0.87
			L17.44,23.33L17.44,23.33z M17.61,12.13C17.61,12.13,17.61,12.14,17.61,12.13L17.61,12.13L17.61,12.13z"/>
		<path class="st4" d="M17.31,12.07c-0.03-0.04-0.06-0.07-0.08-0.09h0c-0.03-0.03-0.06-0.07-0.08-0.09c-1.7-1.97-3.18-3.17-4.43-3.8
			c-1.45-0.73-2.58-0.68-3.39-0.17c-0.7,0.44-0.96,1.71-0.49,3.66c0.4,1.64,1.31,3.76,2.93,6.26l0,0c0,0.01,1.49,2.05,1.65,2.18
			l-0.11,0.15c-0.19-0.14-1.69-2.21-1.69-2.22l0,0c-1.63-2.52-2.56-4.65-2.96-6.32C8.17,9.58,8.47,8.23,9.24,7.75
			c0.86-0.54,2.05-0.6,3.57,0.16c1.27,0.64,2.76,1.85,4.48,3.85c0.03,0.03,0.06,0.07,0.08,0.09h0c0.03,0.03,0.06,0.07,0.08,0.09
			L17.31,12.07L17.31,12.07z"/>
		<path class="st2" d="M14.33,21.6c0.37,0.32,0.78,0.45,0.91,0.3c0.13-0.15-0.06-0.54-0.43-0.85c-0.37-0.32-0.78-0.45-0.91-0.3
			C13.76,20.9,13.96,21.29,14.33,21.6L14.33,21.6z"/>
		<path class="st2" d="M17.81,6.11c0.14,0,0.25-0.11,0.25-0.25c0-0.14-0.11-0.25-0.25-0.25c-0.14,0-0.25,0.11-0.25,0.25
			C17.56,5.99,17.67,6.11,17.81,6.11L17.81,6.11z"/>
		<polygon class="st2" points="17.66,5.65 17.81,4.76 17.95,5.64 17.66,5.65 		"/>
		<polygon class="st2" points="17.66,6.04 17.81,6.93 17.95,6.05 17.66,6.04 		"/>
		<polygon class="st2" points="17.61,6.01 16.68,5.86 17.6,5.72 17.61,6.01 		"/>
		<polygon class="st2" points="18.01,6.01 18.97,5.86 18.02,5.72 18.01,6.01 		"/>
		<path class="st2" d="M11.62,9.67c0.14,0,0.25-0.11,0.25-0.25c0-0.14-0.11-0.25-0.25-0.25c-0.14,0-0.25,0.11-0.25,0.25
			C11.37,9.56,11.48,9.67,11.62,9.67L11.62,9.67z"/>
		<polygon class="st2" points="11.47,9.21 11.62,8.32 11.76,9.21 11.47,9.21 		"/>
		<polygon class="st2" points="11.47,9.61 11.62,10.49 11.76,9.61 11.47,9.61 		"/>
		<polygon class="st2" points="11.42,9.57 10.49,9.42 11.41,9.28 11.42,9.57 		"/>
		<polygon class="st2" points="11.82,9.57 12.79,9.42 11.83,9.28 11.82,9.57 		"/>
		<path class="st2" d="M10.22,26.43c0.14,0,0.25-0.11,0.25-0.25c0-0.14-0.11-0.25-0.25-0.25c-0.14,0-0.25,0.11-0.25,0.25
			C9.97,26.31,10.08,26.43,10.22,26.43L10.22,26.43z"/>
		<polygon class="st2" points="10.07,25.97 10.23,25.08 10.36,25.96 10.07,25.97 		"/>
		<polygon class="st2" points="10.07,26.37 10.23,27.25 10.36,26.37 10.07,26.37 		"/>
		<polygon class="st2" points="10.02,26.33 9.09,26.18 10.01,26.04 10.02,26.33 		"/>
		<polygon class="st2" points="10.42,26.33 11.39,26.18 10.43,26.04 10.42,26.33 		"/>
		<path class="st2" d="M24.75,20.71c0.14,0,0.25-0.11,0.25-0.25c0-0.14-0.11-0.25-0.25-0.25c-0.14,0-0.25,0.11-0.25,0.25
			C24.5,20.59,24.61,20.71,24.75,20.71L24.75,20.71z"/>
		<polygon class="st2" points="24.6,20.25 24.75,19.36 24.89,20.24 24.6,20.25 		"/>
		<polygon class="st2" points="24.6,20.65 24.75,21.53 24.89,20.65 24.6,20.65 		"/>
		<polygon class="st2" points="24.54,20.61 23.62,20.46 24.54,20.32 24.54,20.61 		"/>
		<polygon class="st2" points="24.95,20.61 25.91,20.46 24.95,20.32 24.95,20.61 		"/>
	</g>
</g>
</svg>
